<?xml version="1.0" encoding="UTF-8"?>
<!DOCTYPE svg PUBLIC "-//W3C//DTD SVG 1.1//EN" "http://www.w3.org/Graphics/SVG/1.1/DTD/svg11.dtd">
<svg version="1.1" xmlns="http://www.w3.org/2000/svg" xmlns:xlink="http://www.w3.org/1999/xlink" x="0" y="0" width="128" height="128" viewBox="0, 0, 128, 128">
  <g id="Layer_1">
    <g>
      <path d="M9.925,44.987 L111.967,44.987 L111.967,91.017 L9.925,91.017 L9.925,44.987 z" fill="#000000"/>
      <text transform="matrix(1, 0, 0, 1, 36.275, 74.609)">
        <tspan x="-15.952" y="2.797" font-family="Helvetica-Bold" font-size="14" fill="#FADE03">s.o.s</tspan>
      </text>
      <g>
        <g>
          <g>
            <path d="M86.594,78.576 C86.594,78.576 106.744,111.481 106.744,111.481 C106.744,111.481 118.575,105.381 118.575,105.381 L94.543,74.879 L86.594,78.576 z" fill="#1653BD"/>
            <path d="M86.594,78.576 C86.594,78.576 106.744,111.481 106.744,111.481 C106.744,111.481 118.575,105.381 118.575,105.381 L94.543,74.879 L86.594,78.576 z" fill-opacity="0" stroke="#1E1686" stroke-width="1"/>
          </g>
          <g>
            <g>
              <path d="M76.69,76.578 C61.107,76.578 48.475,63.945 48.475,48.362 C48.475,32.78 61.107,20.147 76.69,20.147 C92.272,20.147 104.905,32.78 104.905,48.362 C104.905,63.945 92.272,76.578 76.69,76.578 z" fill="#1653BD"/>
              <path d="M76.69,76.578 C61.107,76.578 48.475,63.945 48.475,48.362 C48.475,32.78 61.107,20.147 76.69,20.147 C92.272,20.147 104.905,32.78 104.905,48.362 C104.905,63.945 92.272,76.578 76.69,76.578 z" fill-opacity="0" stroke="#1E1686" stroke-width="1"/>
            </g>
            <g>
              <path d="M76.69,70.123 C64.57,70.123 54.745,60.298 54.745,48.178 C54.745,36.058 64.57,26.233 76.69,26.233 C88.81,26.233 98.635,36.058 98.635,48.178 C98.635,60.298 88.81,70.123 76.69,70.123 z" fill="#DAF5F4"/>
              <path d="M76.69,70.123 C64.57,70.123 54.745,60.298 54.745,48.178 C54.745,36.058 64.57,26.233 76.69,26.233 C88.81,26.233 98.635,36.058 98.635,48.178 C98.635,60.298 88.81,70.123 76.69,70.123 z" fill-opacity="0" stroke="#1E1686" stroke-width="1"/>
            </g>
          </g>
        </g>
        <text transform="matrix(1, 0, 0, 1, 76.19, 51.929)">
          <tspan x="-14.39" y="-1.675" font-family="Helvetica-Bold" font-size="14" fill="#000000">help</tspan>
        </text>
      </g>
    </g>
  </g>
</svg>
